<mxfile host="app.diagrams.net" modified="2024-06-10T12:55:25.739Z" agent="Mozilla/5.0 (X11; Linux x86_64; rv:126.0) Gecko/20100101 Firefox/126.0" etag="GClNePVr99S1GX_GN3Q4" version="24.0.7" type="github">
  <diagram name="Page-1" id="GW02TrzgIK-zzw78TcEq">
    <mxGraphModel dx="2936" dy="1109" grid="1" gridSize="10" guides="1" tooltips="1" connect="1" arrows="1" fold="1" page="1" pageScale="1" pageWidth="850" pageHeight="1100" math="0" shadow="0">
      <root>
        <mxCell id="0" />
        <mxCell id="1" parent="0" />
        <mxCell id="jnyCTJYg-8QtuFiZsByJ-1" value="SWMS" style="swimlane;whiteSpace=wrap;html=1;fillColor=#dae8fc;strokeColor=#6c8ebf;swimlaneFillColor=none;rounded=0;shadow=0;glass=0;gradientColor=none;comic=0;separatorColor=none;noLabel=0;snapToPoint=0;fixDash=0;backgroundOutline=0;fixedWidth=0;autosize=0;fillStyle=auto;" parent="1" vertex="1">
          <mxGeometry x="80" y="230" width="1000" height="950" as="geometry">
            <mxRectangle x="-360" y="220" width="90" height="30" as="alternateBounds" />
          </mxGeometry>
        </mxCell>
        <mxCell id="VZ3gEZ-EjABt7tpuUKtO-8" value="Adapter" style="rounded=0;whiteSpace=wrap;html=1;fontStyle=1;fillColor=#e1d5e7;strokeColor=#9673a6;" vertex="1" parent="jnyCTJYg-8QtuFiZsByJ-1">
          <mxGeometry x="30" y="385" width="60" height="410" as="geometry" />
        </mxCell>
        <mxCell id="jnyCTJYg-8QtuFiZsByJ-41" value="Web-BFF" style="rounded=0;whiteSpace=wrap;html=1;fontStyle=1;fillColor=#fff2cc;strokeColor=#d6b656;" parent="jnyCTJYg-8QtuFiZsByJ-1" vertex="1">
          <mxGeometry x="110" y="250" width="860" height="60" as="geometry" />
        </mxCell>
        <mxCell id="jnyCTJYg-8QtuFiZsByJ-42" value="Web-Server" style="rounded=0;whiteSpace=wrap;html=1;fontStyle=1;fontSize=14;fillColor=#d5e8d4;strokeColor=#82b366;" parent="jnyCTJYg-8QtuFiZsByJ-1" vertex="1">
          <mxGeometry x="110" y="160" width="860" height="90" as="geometry" />
        </mxCell>
        <mxCell id="jnyCTJYg-8QtuFiZsByJ-47" value="用户" style="rounded=0;whiteSpace=wrap;html=1;fontSize=16;fontStyle=1;fillColor=#dae8fc;strokeColor=#6c8ebf;" parent="jnyCTJYg-8QtuFiZsByJ-1" vertex="1">
          <mxGeometry x="110" y="90" width="860" height="70" as="geometry" />
        </mxCell>
        <mxCell id="VZ3gEZ-EjABt7tpuUKtO-49" value="" style="group" vertex="1" connectable="0" parent="jnyCTJYg-8QtuFiZsByJ-1">
          <mxGeometry x="110" y="770" width="860" height="160" as="geometry" />
        </mxCell>
        <mxCell id="VZ3gEZ-EjABt7tpuUKtO-47" value="&lt;b&gt;&lt;font style=&quot;font-size: 16px;&quot;&gt;数据层&lt;/font&gt;&lt;/b&gt;" style="shape=mxgraph.ibm.box;prType=zone;fontStyle=0;verticalAlign=top;align=left;spacingLeft=32;spacingTop=4;fillColor=#fad7ac;rounded=0;whiteSpace=wrap;html=1;strokeColor=#b46504;strokeWidth=1;dashed=0;container=0;spacing=-4;collapsible=0;expand=0;recursiveResize=0;" vertex="1" parent="VZ3gEZ-EjABt7tpuUKtO-49">
          <mxGeometry width="860" height="160" as="geometry" />
        </mxCell>
        <mxCell id="VZ3gEZ-EjABt7tpuUKtO-7" value="缓存" style="shape=cylinder3;whiteSpace=wrap;html=1;boundedLbl=1;backgroundOutline=1;size=15;fillColor=#ffe6cc;strokeColor=#d79b00;" vertex="1" parent="VZ3gEZ-EjABt7tpuUKtO-49">
          <mxGeometry x="50" y="30" width="240" height="106.5" as="geometry" />
        </mxCell>
        <mxCell id="jnyCTJYg-8QtuFiZsByJ-5" value="数据库" style="shape=cylinder3;whiteSpace=wrap;html=1;boundedLbl=1;backgroundOutline=1;size=15;fillColor=#ffe6cc;strokeColor=#d79b00;" parent="VZ3gEZ-EjABt7tpuUKtO-49" vertex="1">
          <mxGeometry x="310" y="30" width="240" height="106.5" as="geometry" />
        </mxCell>
        <mxCell id="jnyCTJYg-8QtuFiZsByJ-6" value="对象存储库" style="shape=cylinder3;whiteSpace=wrap;html=1;boundedLbl=1;backgroundOutline=1;size=15;fillColor=#ffe6cc;strokeColor=#d79b00;" parent="VZ3gEZ-EjABt7tpuUKtO-49" vertex="1">
          <mxGeometry x="570" y="30" width="240" height="106.5" as="geometry" />
        </mxCell>
        <mxCell id="VZ3gEZ-EjABt7tpuUKtO-51" value="&lt;font size=&quot;1&quot;&gt;&lt;b style=&quot;font-size: 16px;&quot;&gt;服务层&lt;/b&gt;&lt;/font&gt;" style="shape=mxgraph.ibm.box;prType=zone;fontStyle=0;verticalAlign=top;align=left;spacingLeft=32;spacingTop=4;fillColor=#d0cee2;rounded=0;whiteSpace=wrap;html=1;strokeColor=#56517e;strokeWidth=1;dashed=0;container=1;spacing=-4;collapsible=0;expand=0;recursiveResize=0;" vertex="1" parent="jnyCTJYg-8QtuFiZsByJ-1">
          <mxGeometry x="110" y="310" width="860" height="460" as="geometry" />
        </mxCell>
        <mxCell id="VZ3gEZ-EjABt7tpuUKtO-52" value="" style="group" vertex="1" connectable="0" parent="VZ3gEZ-EjABt7tpuUKtO-51">
          <mxGeometry x="50" y="50" width="580" height="370" as="geometry" />
        </mxCell>
        <mxCell id="VZ3gEZ-EjABt7tpuUKtO-2" value="" style="shape=cube;whiteSpace=wrap;html=1;boundedLbl=1;backgroundOutline=1;darkOpacity=0.05;darkOpacity2=0.1;fontStyle=0;movable=1;resizable=1;rotatable=1;deletable=1;editable=1;locked=0;connectable=1;fillColor=#e1d5e7;strokeColor=#9673a6;" vertex="1" parent="VZ3gEZ-EjABt7tpuUKtO-52">
          <mxGeometry width="580" height="370" as="geometry" />
        </mxCell>
        <mxCell id="jnyCTJYg-8QtuFiZsByJ-9" value="基本信息" style="ellipse;whiteSpace=wrap;html=1;fillColor=#f8cecc;strokeColor=#b85450;" parent="VZ3gEZ-EjABt7tpuUKtO-52" vertex="1">
          <mxGeometry x="60" y="30" width="120" height="80" as="geometry" />
        </mxCell>
        <mxCell id="jnyCTJYg-8QtuFiZsByJ-10" value="学生干部" style="ellipse;whiteSpace=wrap;html=1;fillColor=#f8cecc;strokeColor=#b85450;" parent="VZ3gEZ-EjABt7tpuUKtO-52" vertex="1">
          <mxGeometry x="180" y="30" width="120" height="80" as="geometry" />
        </mxCell>
        <mxCell id="jnyCTJYg-8QtuFiZsByJ-11" value="就业统计" style="ellipse;whiteSpace=wrap;html=1;fillColor=#f8cecc;strokeColor=#b85450;" parent="VZ3gEZ-EjABt7tpuUKtO-52" vertex="1">
          <mxGeometry x="300" y="30" width="120" height="80" as="geometry" />
        </mxCell>
        <mxCell id="jnyCTJYg-8QtuFiZsByJ-12" value="贫困资助" style="ellipse;whiteSpace=wrap;html=1;fillColor=#f8cecc;strokeColor=#b85450;" parent="VZ3gEZ-EjABt7tpuUKtO-52" vertex="1">
          <mxGeometry x="420" y="30" width="120" height="80" as="geometry" />
        </mxCell>
        <mxCell id="jnyCTJYg-8QtuFiZsByJ-13" value="请假记录" style="ellipse;whiteSpace=wrap;html=1;fillColor=#f8cecc;strokeColor=#b85450;" parent="VZ3gEZ-EjABt7tpuUKtO-52" vertex="1">
          <mxGeometry x="60" y="110" width="120" height="80" as="geometry" />
        </mxCell>
        <mxCell id="jnyCTJYg-8QtuFiZsByJ-14" value="奖学金记录" style="ellipse;whiteSpace=wrap;html=1;fillColor=#f8cecc;strokeColor=#b85450;" parent="VZ3gEZ-EjABt7tpuUKtO-52" vertex="1">
          <mxGeometry x="180" y="110" width="120" height="80" as="geometry" />
        </mxCell>
        <mxCell id="jnyCTJYg-8QtuFiZsByJ-22" value="学科竞赛" style="ellipse;whiteSpace=wrap;html=1;fillColor=#f8cecc;strokeColor=#b85450;" parent="VZ3gEZ-EjABt7tpuUKtO-52" vertex="1">
          <mxGeometry x="300" y="110" width="120" height="80" as="geometry" />
        </mxCell>
        <mxCell id="jnyCTJYg-8QtuFiZsByJ-31" value="论文专利软著" style="ellipse;whiteSpace=wrap;html=1;fillColor=#f8cecc;strokeColor=#b85450;" parent="VZ3gEZ-EjABt7tpuUKtO-52" vertex="1">
          <mxGeometry x="420" y="110" width="120" height="80" as="geometry" />
        </mxCell>
        <mxCell id="jnyCTJYg-8QtuFiZsByJ-32" value="处分情况" style="ellipse;whiteSpace=wrap;html=1;fillColor=#f8cecc;strokeColor=#b85450;" parent="VZ3gEZ-EjABt7tpuUKtO-52" vertex="1">
          <mxGeometry x="60" y="190" width="120" height="80" as="geometry" />
        </mxCell>
        <mxCell id="jnyCTJYg-8QtuFiZsByJ-33" value="CET成绩统计" style="ellipse;whiteSpace=wrap;html=1;fillColor=#f8cecc;strokeColor=#b85450;" parent="VZ3gEZ-EjABt7tpuUKtO-52" vertex="1">
          <mxGeometry x="180" y="190" width="120" height="80" as="geometry" />
        </mxCell>
        <mxCell id="jnyCTJYg-8QtuFiZsByJ-34" value="学业预警" style="ellipse;whiteSpace=wrap;html=1;fillColor=#f8cecc;strokeColor=#b85450;" parent="VZ3gEZ-EjABt7tpuUKtO-52" vertex="1">
          <mxGeometry x="300" y="190" width="120" height="80" as="geometry" />
        </mxCell>
        <mxCell id="jnyCTJYg-8QtuFiZsByJ-35" value="招生信息" style="ellipse;whiteSpace=wrap;html=1;movable=1;resizable=1;rotatable=1;deletable=1;editable=1;locked=0;connectable=1;fillColor=#f8cecc;strokeColor=#b85450;" parent="VZ3gEZ-EjABt7tpuUKtO-52" vertex="1">
          <mxGeometry x="420" y="190" width="120" height="80" as="geometry" />
        </mxCell>
        <mxCell id="jnyCTJYg-8QtuFiZsByJ-37" value="学籍变动" style="ellipse;whiteSpace=wrap;html=1;fillColor=#f8cecc;strokeColor=#b85450;" parent="VZ3gEZ-EjABt7tpuUKtO-52" vertex="1">
          <mxGeometry x="60" y="270" width="120" height="80" as="geometry" />
        </mxCell>
        <mxCell id="jnyCTJYg-8QtuFiZsByJ-38" value="账号管理" style="ellipse;whiteSpace=wrap;html=1;fillColor=#f8cecc;strokeColor=#b85450;" parent="VZ3gEZ-EjABt7tpuUKtO-52" vertex="1">
          <mxGeometry x="180" y="270" width="120" height="80" as="geometry" />
        </mxCell>
        <mxCell id="jnyCTJYg-8QtuFiZsByJ-39" value="权限管理" style="ellipse;whiteSpace=wrap;html=1;fillColor=#f8cecc;strokeColor=#b85450;" parent="VZ3gEZ-EjABt7tpuUKtO-52" vertex="1">
          <mxGeometry x="300" y="270" width="120" height="80" as="geometry" />
        </mxCell>
        <mxCell id="jnyCTJYg-8QtuFiZsByJ-8" value="统计图表处理" style="shape=cube;whiteSpace=wrap;html=1;boundedLbl=1;backgroundOutline=1;darkOpacity=0.05;darkOpacity2=0.1;fontStyle=0;fillColor=#e1d5e7;strokeColor=#9673a6;" parent="VZ3gEZ-EjABt7tpuUKtO-51" vertex="1">
          <mxGeometry x="700" y="210" width="120" height="80" as="geometry" />
        </mxCell>
        <mxCell id="VZ3gEZ-EjABt7tpuUKtO-6" value="" style="rounded=0;orthogonalLoop=1;jettySize=auto;html=1;" edge="1" parent="VZ3gEZ-EjABt7tpuUKtO-51" source="VZ3gEZ-EjABt7tpuUKtO-2" target="jnyCTJYg-8QtuFiZsByJ-8">
          <mxGeometry relative="1" as="geometry" />
        </mxCell>
        <mxCell id="VZ3gEZ-EjABt7tpuUKtO-10" style="rounded=0;orthogonalLoop=1;jettySize=auto;html=1;entryX=1;entryY=0.5;entryDx=0;entryDy=0;" edge="1" parent="jnyCTJYg-8QtuFiZsByJ-1" source="jnyCTJYg-8QtuFiZsByJ-13" target="VZ3gEZ-EjABt7tpuUKtO-8">
          <mxGeometry relative="1" as="geometry" />
        </mxCell>
        <mxCell id="VZ3gEZ-EjABt7tpuUKtO-46" style="rounded=0;orthogonalLoop=1;jettySize=auto;html=1;entryX=0;entryY=0.5;entryDx=0;entryDy=0;" edge="1" parent="1" source="VZ3gEZ-EjABt7tpuUKtO-44" target="VZ3gEZ-EjABt7tpuUKtO-8">
          <mxGeometry relative="1" as="geometry" />
        </mxCell>
        <mxCell id="VZ3gEZ-EjABt7tpuUKtO-44" value="请假系统" style="swimlane;whiteSpace=wrap;html=1;fillColor=#dae8fc;strokeColor=#6c8ebf;" vertex="1" parent="1">
          <mxGeometry x="-430" y="780" width="295" height="120" as="geometry" />
        </mxCell>
        <mxCell id="VZ3gEZ-EjABt7tpuUKtO-45" value="&lt;b&gt;&lt;font style=&quot;font-size: 20px;&quot;&gt;...&lt;/font&gt;&lt;/b&gt;" style="text;html=1;align=center;verticalAlign=middle;resizable=0;points=[];autosize=1;strokeColor=none;fillColor=none;" vertex="1" parent="VZ3gEZ-EjABt7tpuUKtO-44">
          <mxGeometry x="127.5" y="55" width="40" height="40" as="geometry" />
        </mxCell>
      </root>
    </mxGraphModel>
  </diagram>
</mxfile>
